<svg width="680" height="132" viewBox="0 0 680 132" fill="none" xmlns="http://www.w3.org/2000/svg" role="img" aria-label="ReferenceBridge — Bridging Trust in Recruitment">
  <g transform="translate(6 7) scale(0.85)">
    <path d="M18 91C31 67 47 55 64 55C81 55 97 67 110 91" stroke="#0B2E59" stroke-width="9" stroke-linecap="round"/>
    <path d="M25 91H103" stroke="#0F8B8D" stroke-width="9" stroke-linecap="round"/>
    <path d="M22 92L37 72V92" stroke="#0B2E59" stroke-width="9" stroke-linecap="round" stroke-linejoin="round"/>
    <path d="M106 92L91 72V92" stroke="#0F8B8D" stroke-width="9" stroke-linecap="round" stroke-linejoin="round"/>
    <path d="M64 18L88 28V50C88 69 77 83 64 90C51 83 40 69 40 50V28L64 18Z" fill="#0F8B8D"/>
    <path d="M64 29L78 35V50C78 63 72 73 64 79C56 73 50 63 50 50V35L64 29Z" fill="#FFFFFF"/>
    <path d="M56 52L62 58L75 43" stroke="#0B2E59" stroke-width="7" stroke-linecap="round" stroke-linejoin="round"/>
  </g>
  <path d="M128 27V105" stroke="#DCE4EC" stroke-width="2"/>
  <text x="154" y="62" font-family="Inter, system-ui, -apple-system, BlinkMacSystemFont, 'Segoe UI', sans-serif" font-size="42" font-weight="800" letter-spacing="0" fill="#0B2E59">Reference<tspan fill="#0F8B8D">Bridge</tspan></text>
  <path d="M156 91H202" stroke="#0F8B8D" stroke-width="3" stroke-linecap="round"/>
  <text x="218" y="98" font-family="Inter, system-ui, -apple-system, BlinkMacSystemFont, 'Segoe UI', sans-serif" font-size="19" font-weight="600" letter-spacing="0" fill="#667085">Bridging Trust in Recruitment</text>
  <path d="M500 91H560" stroke="#0F8B8D" stroke-width="3" stroke-linecap="round"/>
</svg>
